<?xml version="1.0" standalone="no"?>
<!DOCTYPE svg PUBLIC "-//W3C//DTD SVG 20010904//EN"
 "http://www.w3.org/TR/2001/REC-SVG-20010904/DTD/svg10.dtd">
<svg version="1.0" xmlns="http://www.w3.org/2000/svg"
 width="432.000000pt" height="432.000000pt" viewBox="0 0 432.000000 432.000000"
 preserveAspectRatio="xMidYMid meet">

<g transform="translate(0.000000,432.000000) scale(0.100000,-0.100000)"
fill="#000000" stroke="none">
<path d="M0 2160 l0 -2160 465 0 465 0 0 95 c0 88 2 96 24 110 20 14 82 15
494 13 559 -4 512 8 512 -130 l0 -88 225 0 225 0 0 88 c0 140 -52 127 505 127
l477 0 19 -24 c15 -19 19 -39 19 -107 l0 -84 445 0 445 0 0 2160 0 2160 -329
0 -328 0 -7 -352 c-4 -194 -6 -623 -6 -953 3 -1030 -1 -1546 -10 -1571 -5 -13
-22 -27 -37 -31 -15 -4 -119 -8 -230 -8 -153 0 -205 3 -215 13 -10 11 -12 108
-9 488 2 365 0 478 -9 489 -10 13 -51 15 -244 15 -129 0 -251 -5 -276 -11 -32
-8 -234 -7 -712 2 -545 10 -670 10 -682 -1 -14 -11 -16 -47 -16 -245 0 -201 2
-234 16 -246 24 -20 409 -13 483 8 72 21 155 14 184 -16 21 -21 22 -31 25
-230 3 -196 4 -210 24 -227 18 -17 42 -19 229 -22 134 -2 215 1 228 8 19 10
20 23 23 236 3 224 3 226 27 245 29 24 106 25 188 4 32 -8 100 -15 155 -15 89
0 98 -2 112 -22 14 -20 16 -82 16 -474 0 -403 -2 -453 -16 -458 -23 -9 -1497
-7 -1510 2 -6 4 -14 28 -18 55 -4 26 -11 47 -15 47 -10 0 -21 -35 -21 -66 0
-25 -18 -34 -65 -34 -32 0 -33 1 -40 56 -3 30 -5 125 -4 210 4 212 22 198
-251 202 l-210 3 -18 27 c-15 22 -17 53 -17 217 -1 155 -4 199 -19 241 -15 45
-17 78 -12 290 10 386 13 1437 4 1462 -4 12 -11 166 -14 342 l-7 320 -344 0
-343 0 0 -2160z m3345 -1208 c164 -5 247 -11 263 -20 22 -13 22 -15 22 -221 0
-182 -2 -210 -17 -222 -21 -18 -608 -18 -642 0 -20 11 -21 18 -21 217 l0 206
30 30 c28 27 34 29 78 24 26 -4 155 -10 287 -14z m-2117 -19 c4 -6 7 -105 7
-219 l0 -209 -30 -15 c-23 -11 -79 -15 -231 -18 -265 -5 -244 -24 -244 222 0
179 7 231 33 249 19 13 457 4 465 -10z m148 -394 c10 -17 -13 -36 -27 -22 -12
12 -4 33 11 33 5 0 12 -5 16 -11z"/>
<path d="M1700 4118 c0 -112 -3 -314 -7 -450 -4 -192 -3 -251 7 -263 11 -13
72 -15 466 -15 336 0 460 3 480 12 l27 13 -7 150 c-3 82 -8 175 -10 205 -2 30
-7 166 -11 303 l-8 247 -468 0 -469 0 0 -202z"/>
<path d="M1344 1359 c-3 -6 -1 -16 5 -22 9 -9 14 -8 21 3 5 8 10 18 10 23 0
11 -28 8 -36 -4z"/>
<path d="M1361 1284 c0 -11 3 -14 6 -6 3 7 2 16 -1 19 -3 4 -6 -2 -5 -13z"/>
<path d="M1356 1182 c-2 -4 -1 -14 5 -22 7 -12 9 -10 9 8 0 23 -5 28 -14 14z"/>
</g>
</svg>
